<svg width="1400" height="840" viewBox="0 0 1400 840" fill="none" xmlns="http://www.w3.org/2000/svg" role="img" aria-label="Remotex desktop webapp preview">
  <rect width="1400" height="840" rx="16" fill="#F4F1EA"/>
  <rect x="40" y="36" width="1320" height="768" rx="10" fill="#FFFFFF" stroke="#1A1A1A" stroke-width="2"/>
  <rect x="40" y="36" width="1320" height="52" rx="10" fill="#EBE6DA" stroke="#1A1A1A" stroke-width="2"/>
  <circle cx="72" cy="62" r="8" fill="#D96A5C"/>
  <circle cx="98" cy="62" r="8" fill="#D6B447"/>
  <circle cx="124" cy="62" r="8" fill="#6AA66A"/>
  <text x="160" y="67" fill="#3A3A3A" font-family="monospace" font-size="16">Remotex · Desktop Web</text>

  <rect x="72" y="120" width="240" height="44" rx="6" fill="#1A1A1A"/>
  <text x="88" y="148" fill="#F4F1EA" font-family="monospace" font-size="16">Systems</text>
  <rect x="320" y="120" width="240" height="44" rx="6" fill="#F4F1EA" stroke="#9A958A"/>
  <text x="338" y="148" fill="#3A3A3A" font-family="monospace" font-size="16">Desktop Web</text>
  <rect x="568" y="120" width="240" height="44" rx="6" fill="#F4F1EA" stroke="#9A958A"/>
  <text x="588" y="148" fill="#3A3A3A" font-family="monospace" font-size="16">Mobile Web</text>

  <rect x="72" y="190" width="360" height="560" rx="8" fill="#FFFFFF" stroke="#1A1A1A" stroke-width="2"/>
  <text x="92" y="222" fill="#D97642" font-family="monospace" font-size="15">01</text>
  <text x="130" y="222" fill="#1A1A1A" font-family="monospace" font-size="15">SESSION OVERVIEW</text>

  <rect x="92" y="248" width="320" height="96" rx="6" fill="#F4F1EA"/>
  <rect x="92" y="356" width="320" height="96" rx="6" fill="#F4F1EA"/>
  <rect x="92" y="464" width="320" height="96" rx="6" fill="#F4F1EA"/>
  <rect x="92" y="572" width="320" height="156" rx="6" fill="#F4F1EA"/>

  <rect x="454" y="190" width="430" height="560" rx="8" fill="#FFFFFF" stroke="#1A1A1A" stroke-width="2"/>
  <text x="474" y="222" fill="#D97642" font-family="monospace" font-size="15">02</text>
  <text x="510" y="222" fill="#1A1A1A" font-family="monospace" font-size="15">COCKPIT</text>
  <rect x="474" y="248" width="390" height="224" rx="6" fill="#111111"/>
  <rect x="474" y="484" width="390" height="112" rx="6" fill="#F4F1EA"/>
  <rect x="474" y="608" width="390" height="120" rx="6" fill="#F4F1EA"/>

  <rect x="906" y="190" width="430" height="560" rx="8" fill="#FFFFFF" stroke="#1A1A1A" stroke-width="2"/>
  <text x="926" y="222" fill="#D97642" font-family="monospace" font-size="15">03</text>
  <text x="962" y="222" fill="#1A1A1A" font-family="monospace" font-size="15">DOCUMENT LAYOUT</text>
  <rect x="926" y="248" width="390" height="224" rx="6" fill="#F4F1EA"/>
  <rect x="926" y="484" width="390" height="244" rx="6" fill="#F4F1EA"/>

  <text x="72" y="792" fill="#6B6B66" font-family="monospace" font-size="14">Illustrative preview generated from wireframe structure (desktop).</text>
</svg>
